<svg width="86" height="26" viewBox="0 0 86 26" fill="none" xmlns="http://www.w3.org/2000/svg">
<g id="PING.">
<path d="M19.664 8.648C19.664 10.2267 19.2907 11.56 18.544 12.648C17.7973 13.7147 16.7733 14.5253 15.472 15.08C14.192 15.6347 12.6987 15.912 10.992 15.912H6.192C5.95733 15.912 5.84 16.0293 5.84 16.264V24.264C5.84 24.7547 5.56267 25 5.008 25H0.912C0.656 25 0.474667 24.9467 0.368 24.84C0.282667 24.7333 0.24 24.5733 0.24 24.36V1.864C0.24 1.45867 0.410667 1.256 0.752 1.256H10.352C12.0587 1.256 13.616 1.52267 15.024 2.056C16.4533 2.58933 17.584 3.4 18.416 4.488C19.248 5.576 19.664 6.96267 19.664 8.648ZM13.904 8.552C13.904 7.80533 13.744 7.19733 13.424 6.728C13.104 6.23733 12.6453 5.87467 12.048 5.64C11.4507 5.40533 10.768 5.288 10 5.288H6.448C6.04267 5.288 5.84 5.46933 5.84 5.832V11.304C5.84 11.7093 5.98933 11.912 6.288 11.912H10.224C11.3547 11.912 12.2507 11.6133 12.912 11.016C13.5733 10.4187 13.904 9.59733 13.904 8.552ZM28.203 1.256C28.5443 1.256 28.715 1.448 28.715 1.832V24.232C28.715 24.5093 28.6403 24.712 28.491 24.84C28.363 24.9467 28.1497 25 27.851 25H23.819C23.5417 25 23.3497 24.9467 23.243 24.84C23.1577 24.7333 23.115 24.5627 23.115 24.328V1.864C23.115 1.45867 23.2857 1.256 23.627 1.256H28.203ZM52.6008 1.256C52.8781 1.256 53.0168 1.416 53.0168 1.736V24.488C53.0168 24.6373 52.9634 24.7653 52.8568 24.872C52.7501 24.9573 52.6008 25 52.4088 25H49.1768C49.0061 25 48.8674 24.9787 48.7608 24.936C48.6541 24.8933 48.5261 24.7867 48.3768 24.616L38.1688 10.28C38.0834 10.1733 37.9981 10.1307 37.9128 10.152C37.8488 10.1733 37.8168 10.2373 37.8168 10.344V24.424C37.8381 24.808 37.6248 25 37.1768 25H33.8488C33.4221 25 33.2088 24.8187 33.2088 24.456V1.864C33.2088 1.45867 33.4008 1.256 33.7848 1.256H37.6568C37.8914 1.256 38.0621 1.288 38.1688 1.352C38.2968 1.416 38.4354 1.544 38.5848 1.736L47.9928 15.144C48.1208 15.3147 48.2274 15.3893 48.3128 15.368C48.4194 15.3467 48.4728 15.24 48.4728 15.048V1.832C48.4728 1.448 48.6648 1.256 49.0487 1.256H52.6008ZM67.346 25.32C65.1913 25.32 63.3033 24.8187 61.682 23.816C60.082 22.8133 58.8447 21.4053 57.97 19.592C57.0953 17.7787 56.658 15.656 56.658 13.224C56.658 10.7067 57.1167 8.53067 58.034 6.696C58.9513 4.86133 60.2313 3.44267 61.874 2.44C63.538 1.43733 65.4687 0.935999 67.666 0.935999C69.394 0.935999 70.9407 1.26667 72.306 1.928C73.6713 2.58933 74.77 3.432 75.602 4.456C76.4553 5.48 76.9887 6.568 77.202 7.72C77.2873 8.04 77.298 8.25333 77.234 8.36C77.1913 8.46667 77.0633 8.54133 76.85 8.584L72.626 9.224C72.434 9.224 72.306 9.18133 72.242 9.096C72.1993 9.01067 72.1567 8.88267 72.114 8.712C71.986 8.008 71.7193 7.368 71.314 6.792C70.93 6.216 70.418 5.75733 69.778 5.416C69.1593 5.05333 68.4127 4.872 67.538 4.872C66.4927 4.872 65.586 5.14933 64.818 5.704C64.0713 6.25867 63.4953 7.13333 63.09 8.328C62.706 9.52267 62.514 11.0907 62.514 13.032C62.514 15.08 62.7167 16.712 63.122 17.928C63.5487 19.144 64.146 20.0293 64.914 20.584C65.7033 21.1173 66.642 21.384 67.73 21.384C68.4127 21.384 69.01 21.288 69.522 21.096C70.0553 20.8827 70.5033 20.6053 70.866 20.264C71.25 19.9227 71.5593 19.5387 71.794 19.112C72.0287 18.664 72.1993 18.2053 72.306 17.736L72.37 16.808C72.4553 16.488 72.3487 16.328 72.05 16.328H68.178C68.0073 16.328 67.8793 16.296 67.794 16.232C67.7087 16.1467 67.666 15.9973 67.666 15.784V13.384C67.666 13.0853 67.8367 12.936 68.178 12.936L76.722 12.968C77.042 12.968 77.2767 13.0427 77.426 13.192C77.5753 13.32 77.65 13.5013 77.65 13.736V24.52C77.65 24.6693 77.6073 24.7867 77.522 24.872C77.4367 24.9573 77.3193 25 77.17 25H76.146C75.9753 25 75.826 24.968 75.698 24.904C75.57 24.8187 75.442 24.68 75.314 24.488L74.386 22.184C74.3647 22.12 74.322 22.088 74.258 22.088C74.2153 22.088 74.1513 22.1413 74.066 22.248C73.682 22.7173 73.202 23.1973 72.626 23.688C72.05 24.1573 71.3353 24.552 70.482 24.872C69.6287 25.1707 68.5833 25.32 67.346 25.32Z" fill="#15202A"/>
<path d="M85.9685 24.232C85.9685 24.744 85.6698 25 85.0725 25H81.2965C80.8272 25 80.5925 24.776 80.5925 24.328V20.264C80.5925 19.88 80.7632 19.688 81.1045 19.688H85.4885C85.8085 19.688 85.9685 19.8693 85.9685 20.232V24.232Z" fill="#4C7BF3"/>
</g>
</svg>
